<?xml version="1.0" encoding="UTF-8" standalone="no"?>
<!-- Created with Inkscape (http://www.inkscape.org/) -->

<svg
   xmlns:dc="http://purl.org/dc/elements/1.1/"
   xmlns:cc="http://creativecommons.org/ns#"
   xmlns:rdf="http://www.w3.org/1999/02/22-rdf-syntax-ns#"
   xmlns:svg="http://www.w3.org/2000/svg"
   xmlns="http://www.w3.org/2000/svg"
   xmlns:sodipodi="http://sodipodi.sourceforge.net/DTD/sodipodi-0.dtd"
   xmlns:inkscape="http://www.inkscape.org/namespaces/inkscape"
   width="77.037392mm"
   height="34.169655mm"
   viewBox="0 0 272.96714 121.07358"
   id="svg4624"
   version="1.1"
   inkscape:version="0.91 r13725"
   sodipodi:docname="header.svg">
  <defs
     id="defs4626" />
  <sodipodi:namedview
     id="base"
     pagecolor="#ffffff"
     bordercolor="#666666"
     borderopacity="1.0"
     inkscape:pageopacity="0.0"
     inkscape:pageshadow="2"
     inkscape:zoom="1.1950885"
     inkscape:cx="334.70944"
     inkscape:cy="-120.4442"
     inkscape:document-units="px"
     inkscape:current-layer="layer1"
     showgrid="false"
     fit-margin-top="0"
     fit-margin-left="0"
     fit-margin-right="0"
     fit-margin-bottom="0"
     inkscape:window-width="1920"
     inkscape:window-height="1021"
     inkscape:window-x="0"
     inkscape:window-y="33"
     inkscape:window-maximized="1" />
  <metadata
     id="metadata4629">
    <rdf:RDF>
      <cc:Work
         rdf:about="">
        <dc:format>image/svg+xml</dc:format>
        <dc:type
           rdf:resource="http://purl.org/dc/dcmitype/StillImage" />
        <dc:title></dc:title>
      </cc:Work>
    </rdf:RDF>
  </metadata>
  <g
     inkscape:label="Layer 1"
     inkscape:groupmode="layer"
     id="layer1"
     transform="translate(-45.05586,-48.93399)">
    <g
       transform="matrix(0.43776829,0,0,0.43776829,13.234483,-15.962357)"
       style="font-style:normal;font-variant:normal;font-weight:900;font-stretch:normal;font-size:180px;line-height:80.00000119%;font-family:Lato;-inkscape-font-specification:'Lato, Heavy';text-align:start;letter-spacing:0px;word-spacing:0px;writing-mode:lr-tb;text-anchor:start;fill:#316a91;fill-opacity:1;stroke:none;stroke-width:1px;stroke-linecap:butt;stroke-linejoin:miter;stroke-opacity:1"
       id="flowRoot3336-0-11">
      <path
         d="m 72.69,279.3736 0,-131.13 48.24,0 q 13.59,0 23.13,2.52 9.54,2.52 15.57,7.11 6.03,4.59 8.73,11.16 2.79,6.57 2.79,14.67 0,4.41 -1.26,8.55 -1.26,4.05 -3.96,7.65 -2.7,3.6 -6.93,6.57 -4.23,2.88 -10.17,5.04 12.96,3.15 19.17,10.26 6.21,7.02 6.21,18.09 0,8.37 -3.24,15.57 -3.24,7.2 -9.54,12.6 -6.21,5.31 -15.39,8.37 -9.18,2.97 -20.97,2.97 l -52.38,0 z m 30.42,-55.62 0,32.67 21.42,0 q 6.03,0 9.81,-1.53 3.87,-1.53 6.03,-3.96 2.16,-2.43 2.97,-5.49 0.81,-3.06 0.81,-6.21 0,-3.6 -0.99,-6.48 -0.9,-2.88 -3.24,-4.86 -2.25,-1.98 -6.03,-3.06 -3.78,-1.08 -9.54,-1.08 l -21.24,0 z m 0,-20.34 15.84,0 q 5.04,0 9.09,-0.72 4.05,-0.72 6.84,-2.52 2.88,-1.8 4.32,-4.95 1.53,-3.15 1.53,-7.92 0,-4.68 -1.17,-7.74 -1.17,-3.15 -3.6,-5.04 -2.43,-1.89 -6.21,-2.7 -3.69,-0.81 -8.82,-0.81 l -17.82,0 0,32.4 z"
         id="path4668"
         inkscape:connector-curvature="0" />
      <path
         d="m 223.69594,255.0736 48.6,0 0,24.3 -79.02,0 0,-131.13 30.42,0 0,106.83 z"
         id="path4670"
         inkscape:connector-curvature="0" />
      <path
         d="m 339.75375,255.3436 q 6.12,0 10.89,-1.98 4.86,-2.07 8.19,-5.85 3.33,-3.78 5.04,-9.18 1.8,-5.49 1.8,-12.42 l 0,-77.67 30.42,0 0,77.67 q 0,12.06 -3.96,22.14 -3.87,10.08 -11.16,17.37 -7.29,7.29 -17.73,11.34 -10.44,4.05 -23.49,4.05 -13.14,0 -23.58,-4.05 -10.44,-4.05 -17.73,-11.34 -7.29,-7.29 -11.16,-17.37 -3.87,-10.08 -3.87,-22.14 l 0,-77.67 30.42,0 0,77.58 q 0,6.93 1.71,12.42 1.8,5.4 5.13,9.27 3.33,3.78 8.1,5.85 4.86,1.98 10.98,1.98 z"
         id="path4672"
         inkscape:connector-curvature="0" />
      <path
         d="m 504.10219,148.2436 0,23.4 -53.82,0 0,30.6 41.22,0 0,22.5 -41.22,0 0,31.23 53.82,0 0,23.4 -84.42,0 0,-131.13 84.42,0 z"
         id="path4674"
         inkscape:connector-curvature="0" />
      <path
         d="m 72.69,423.3736 0,-131.13 48.24,0 q 13.59,0 23.13,2.52 9.54,2.52 15.57,7.11 6.03,4.59 8.73,11.16 2.79,6.57 2.79,14.67 0,4.41 -1.26,8.55 -1.26,4.05 -3.96,7.65 -2.7,3.6 -6.93,6.57 -4.23,2.88 -10.17,5.04 12.96,3.15 19.17,10.26 6.21,7.02 6.21,18.09 0,8.37 -3.24,15.57 -3.24,7.2 -9.54,12.6 -6.21,5.31 -15.39,8.37 -9.18,2.97 -20.97,2.97 l -52.38,0 z m 30.42,-55.62 0,32.67 21.42,0 q 6.03,0 9.81,-1.53 3.87,-1.53 6.03,-3.96 2.16,-2.43 2.97,-5.49 0.81,-3.06 0.81,-6.21 0,-3.6 -0.99,-6.48 -0.9,-2.88 -3.24,-4.86 -2.25,-1.98 -6.03,-3.06 -3.78,-1.08 -9.54,-1.08 l -21.24,0 z m 0,-20.34 15.84,0 q 5.04,0 9.09,-0.72 4.05,-0.72 6.84,-2.52 2.88,-1.8 4.32,-4.95 1.53,-3.15 1.53,-7.92 0,-4.68 -1.17,-7.74 -1.17,-3.15 -3.6,-5.04 -2.43,-1.89 -6.21,-2.7 -3.69,-0.81 -8.82,-0.81 l -17.82,0 0,32.4 z"
         id="path4676"
         inkscape:connector-curvature="0" />
      <path
         d="m 308.79656,423.3736 -23.58,0 q -3.96,0 -6.39,-1.8 -2.43,-1.89 -3.69,-4.77 l -7.74,-22.86 -49.86,0 -7.74,22.86 q -0.99,2.52 -3.6,4.59 -2.52,1.98 -6.3,1.98 l -23.76,0 50.76,-131.13 31.14,0 50.76,131.13 z m -84.24,-50.13 35.82,0 -12.06,-35.91 q -1.35,-3.42 -2.88,-8.01 -1.53,-4.68 -3.06,-10.08 -1.44,5.49 -2.97,10.17 -1.44,4.68 -2.79,8.1 l -12.06,35.73 z"
         id="path4678"
         inkscape:connector-curvature="0" />
      <path
         d="m 349.55531,374.8636 0,48.51 -30.42,0 0,-131.13 42.66,0 q 14.22,0 24.21,2.97 10.08,2.88 16.38,8.1 6.39,5.22 9.27,12.33 2.88,7.11 2.88,15.48 0,6.39 -1.71,12.06 -1.71,5.67 -5.13,10.53 -3.33,4.77 -8.28,8.55 -4.86,3.78 -11.25,6.21 3.06,1.53 5.67,3.87 2.61,2.25 4.68,5.4 l 27.9,45.63 -27.54,0 q -7.65,0 -10.98,-5.76 l -21.78,-38.07 q -1.53,-2.43 -3.42,-3.51 -1.89,-1.17 -5.4,-1.17 l -7.74,0 z m 0,-20.97 12.24,0 q 6.21,0 10.53,-1.53 4.41,-1.62 7.2,-4.41 2.79,-2.79 4.05,-6.48 1.26,-3.78 1.26,-8.1 0,-8.64 -5.67,-13.5 -5.58,-4.86 -17.37,-4.86 l -12.24,0 0,38.88 z"
         id="path4680"
         inkscape:connector-curvature="0" />
      <path
         d="m 563.85094,357.7636 q 0,14.22 -4.95,26.46 -4.86,12.24 -13.77,21.33 -8.91,9 -21.51,14.13 -12.51,5.13 -27.81,5.13 -15.3,0 -27.9,-5.13 -12.6,-5.13 -21.6,-14.13 -8.91,-9.09 -13.86,-21.33 -4.86,-12.24 -4.86,-26.46 0,-14.22 4.86,-26.46 4.95,-12.24 13.86,-21.24 9,-9 21.6,-14.13 12.6,-5.13 27.9,-5.13 15.3,0 27.81,5.22 12.6,5.13 21.51,14.13 8.91,9 13.77,21.24 4.95,12.24 4.95,26.37 z m -31.14,0 q 0,-9.72 -2.52,-17.46 -2.52,-7.83 -7.29,-13.23 -4.68,-5.4 -11.52,-8.28 -6.84,-2.88 -15.57,-2.88 -8.82,0 -15.75,2.88 -6.84,2.88 -11.61,8.28 -4.68,5.4 -7.2,13.23 -2.52,7.74 -2.52,17.46 0,9.81 2.52,17.64 2.52,7.74 7.2,13.14 4.77,5.4 11.61,8.28 6.93,2.79 15.75,2.79 8.73,0 15.57,-2.79 6.84,-2.88 11.52,-8.28 4.77,-5.4 7.29,-13.14 2.52,-7.83 2.52,-17.64 z"
         id="path4682"
         inkscape:connector-curvature="0" />
      <path
         d="m 597.7725,292.2436 q 1.98,0 3.33,0.18 1.35,0.18 2.43,0.72 1.08,0.45 2.07,1.35 0.99,0.9 2.25,2.43 l 62.28,78.75 q -0.36,-3.78 -0.54,-7.29 -0.18,-3.6 -0.18,-6.75 l 0,-69.39 26.82,0 0,131.13 -15.84,0 q -3.51,0 -5.94,-1.08 -2.34,-1.17 -4.68,-3.96 l -61.83,-78.12 q 0.27,3.42 0.45,6.75 0.18,3.24 0.18,6.12 l 0,70.29 -26.82,0 0,-131.13 16.02,0 0,0 z"
         id="path4684"
         inkscape:connector-curvature="0" />
    </g>
  </g>
</svg>
