<?xml version="1.0" encoding="UTF-8" standalone="no"?>
<!-- Created with Inkscape (http://www.inkscape.org/) -->

<svg
   xmlns:dc="http://purl.org/dc/elements/1.1/"
   xmlns:cc="http://creativecommons.org/ns#"
   xmlns:rdf="http://www.w3.org/1999/02/22-rdf-syntax-ns#"
   xmlns:svg="http://www.w3.org/2000/svg"
   xmlns="http://www.w3.org/2000/svg"
   xmlns:sodipodi="http://sodipodi.sourceforge.net/DTD/sodipodi-0.dtd"
   xmlns:inkscape="http://www.inkscape.org/namespaces/inkscape"
   width="210mm"
   height="297mm"
   viewBox="0 0 744.09448819 1052.3622047"
   id="svg2"
   version="1.1"
   inkscape:version="0.91 r13725"
   sodipodi:docname="blue_baron.svg">
  <defs
     id="defs4">
    <inkscape:path-effect
       effect="powerstroke"
       id="path-effect4269"
       is_visible="true"
       offset_points=""
       sort_points="true"
       interpolator_type=""
       interpolator_beta="0.2"
       start_linecap_type="round"
       linejoin_type="round"
       miter_limit="4"
       end_linecap_type="round" />
    <inkscape:path-effect
       effect="vonkoch"
       id="path-effect4267"
       is_visible="true"
       ref_path="m -218.84215,307.56308 507.0665,0"
       generator="m -218.84215,650.04082 169.022167,0 m 169.022163,0 169.02217,0"
       similar_only="false"
       nbgenerations="1"
       drawall="true"
       maxComplexity="1000" />
    <inkscape:path-effect
       effect="skeletal"
       id="path-effect4265"
       is_visible="true"
       pattern="M 0,0 1,0"
       copytype="single_stretched"
       prop_scale="1"
       scale_y_rel="false"
       spacing="0"
       normal_offset="0"
       tang_offset="0"
       prop_units="false"
       vertical_pattern="false"
       fuse_tolerance="0" />
    <inkscape:path-effect
       effect="rough_hatches"
       id="path-effect4263"
       is_visible="true"
       direction="34.6911,302.56308 , 126.76663,0"
       dist_rdm="75;62537180"
       growth="0"
       do_bend="true"
       bender="34.6911,307.56308 , 5,0"
       bottom_edge_variation="68.495548;1"
       top_edge_variation="68.495548;1"
       bottom_tgt_variation="0;1"
       top_tgt_variation="0;1"
       scale_bf="1"
       scale_bb="1"
       scale_tf="1"
       scale_tb="1"
       top_smth_variation="0;1"
       bottom_smth_variation="0;1"
       fat_output="true"
       stroke_width_top="1"
       stroke_width_bottom="1"
       front_thickness="1"
       back_thickness="0.25" />
  </defs>
  <sodipodi:namedview
     id="base"
     pagecolor="#ffffff"
     bordercolor="#666666"
     borderopacity="1.0"
     inkscape:pageopacity="0.0"
     inkscape:pageshadow="2"
     inkscape:zoom="0.7"
     inkscape:cx="184.44597"
     inkscape:cy="521.02612"
     inkscape:document-units="px"
     inkscape:current-layer="layer1"
     showgrid="false"
     inkscape:window-width="1920"
     inkscape:window-height="1021"
     inkscape:window-x="0"
     inkscape:window-y="33"
     inkscape:window-maximized="1" />
  <metadata
     id="metadata7">
    <rdf:RDF>
      <cc:Work
         rdf:about="">
        <dc:format>image/svg+xml</dc:format>
        <dc:type
           rdf:resource="http://purl.org/dc/dcmitype/StillImage" />
        <dc:title></dc:title>
      </cc:Work>
    </rdf:RDF>
  </metadata>
  <g
     inkscape:label="Layer 1"
     inkscape:groupmode="layer"
     id="layer1">
    <path
       inkscape:connector-curvature="0"
       id="path4227"
       d="m 240.66835,860.43723 -2.82073,-7.7361 1.39284,-2.23029 1.39284,-2.23027 -0.71755,-6.44408 c -0.39465,-3.54424 -0.93887,-30.69999 -1.20939,-60.34611 -0.2705,-29.64613 -0.52525,-55.3083 -0.56611,-57.02705 -0.0409,-1.71875 -0.72018,-4.40589 -1.50959,-5.97141 l -1.43531,-2.84642 1.1927,-3.39145 1.19271,-3.39143 1.9764,-0.38063 1.9764,-0.38061 5.2134,4.35566 c 2.86738,2.39563 6.46636,4.73298 7.99778,5.19411 7.46761,2.24868 23.02165,9.83525 27.62213,13.47287 6.41464,5.07207 14.7226,9.42553 27.66223,14.49528 5.5,2.15492 14.5,6.09538 20,8.75659 5.5,2.66121 13.22634,6.36381 17.16964,8.228 l 7.16962,3.38943 3.17339,-0.79646 3.17339,-0.79648 2.92531,3.15647 c 3.77602,4.07439 3.91702,4.05091 10.86834,-1.81052 3.23981,-2.73186 8.05726,-6.19829 10.70543,-7.70316 2.64819,-1.50489 6.78363,-4.54765 9.18988,-6.76169 5.85916,-5.39113 23.45079,-19.3558 28.125,-22.32633 2.0625,-1.31075 7.40625,-5.59375 11.875,-9.51777 4.46875,-3.92403 10.54097,-8.36034 13.49382,-9.85846 2.95285,-1.49813 7.45285,-4.56623 10,-6.81801 2.54715,-2.25178 6.71914,-5.35381 9.27109,-6.89341 2.55196,-1.53958 6.3961,-5.01661 8.54254,-7.72671 l 3.90262,-4.92746 2.8669,0 2.86692,0 1.51263,1.82261 1.51264,1.82263 0.56943,22.23987 c 0.31318,12.23194 0.83386,37.70864 1.15707,56.61489 0.3232,18.90625 0.77829,43.09375 1.01129,53.75 0.233,10.65625 0.1876,20.35937 -0.10088,21.5625 l -0.52453,2.1875 -1.7594,0 c -2.69635,0 -17.81475,-8.4152 -26.15099,-14.55615 l -7.45385,-5.49094 -5.04615,-1.33855 c -2.77539,-0.7362 -8.1399,-3.10186 -11.92115,-5.25702 l -6.875,-3.91847 -6.45298,0.34626 -6.45297,0.34625 -5.10953,-5.31751 c -2.81023,-2.92461 -5.10952,-5.70803 -5.10952,-6.18537 0,-1.58921 -11.75354,-8.43 -21.25,-12.36791 -12.73584,-5.28119 -15.26771,-6.37052 -17.79554,-7.65643 -1.1938,-0.60729 -2.70036,-1.10416 -3.34791,-1.10416 -1.80996,0 -16.37564,8.731 -21.98155,13.17625 -2.75,2.18064 -7.25,5.11581 -10,6.52263 -2.75,1.4068 -6.40625,4.07226 -8.125,5.92325 -1.71875,1.85097 -4.64074,4.15406 -6.4933,5.11796 -1.85258,0.9639 -9.7614,7.51982 -17.57516,14.56872 l -14.20687,12.81619 -6.79983,3.65252 c -7.78575,4.18212 -15.00029,9.66654 -25.14454,19.11464 l -7.09471,6.60784 -2.4253,0 -2.42532,0 z"
       style="fill:#010177;fill-opacity:1"
       sodipodi:nodetypes="ccccsscscccccscsssscccsssssssssscccccsssscsscsscccsssssssssscsscccc" />
    <path
       inkscape:connector-curvature="0"
       id="path4225"
       d="m 242.54199,861.61083 c -1.47034,-8.38431 -1.91008,-24.10035 -2.22969,-79.6875 l -0.29826,-51.875 -1.04765,-1.63355 -1.04765,-1.63354 0.76788,-3.05947 0.76788,-3.05948 -1.77888,-2.80699 -1.77887,-2.80697 1.0884,-2.8125 1.08839,-2.8125 2.31028,0 2.31028,0 3.78394,4.27402 3.78394,4.27403 5.17321,1.393 c 7.98827,2.15102 21.74766,8.64281 25.21891,11.89849 5.11723,4.79943 28.92524,16.51227 39.03155,19.20237 2.5611,0.68172 7.97844,3.25741 12.03851,5.72379 4.06009,2.46636 7.95313,4.4843 8.65122,4.4843 1.13661,0 17.57526,7.19774 23.07426,10.10317 3.70605,1.95813 5.05769,1.36592 14.50353,-6.35469 5.04574,-4.12417 9.76636,-7.49848 10.49024,-7.49848 0.72389,0 4.4216,-2.67188 8.21714,-5.9375 15.72628,-13.53065 25.65721,-21.5625 26.66082,-21.5625 0.58678,0 5.45611,-3.86774 10.82072,-8.59497 5.36462,-4.72724 12.25882,-9.86408 15.32044,-11.41519 3.06161,-1.55112 7.67757,-4.71463 10.25767,-7.03003 2.58011,-2.3154 5.27968,-4.20981 5.99905,-4.20981 0.71938,0 4.67935,-3.38189 8.79996,-7.51531 l 7.49202,-7.51532 2.27937,1.21988 2.27938,1.21989 0.74293,5.98294 c 0.40863,3.2906 0.80708,14.98292 0.88545,25.98292 0.16133,22.64149 0.94728,72.36962 1.62988,103.125 0.25177,11.34375 0.20725,21.07744 -0.0989,21.63042 l -0.5567,1.00542 -2.96527,-1.94292 c -1.63096,-1.06861 -3.5704,-1.94292 -4.30993,-1.94292 -0.73952,0 -2.86868,-1.02321 -4.73147,-2.27379 -1.86279,-1.25059 -7.60564,-5.10622 -12.76189,-8.56807 l -9.375,-6.29428 -6.5478,-2.15251 c -3.60129,-1.18387 -6.91956,-2.75402 -7.37394,-3.48923 l -0.82615,-1.33673 3.62395,0.98377 c 1.99317,0.54108 4.985,0.90276 6.64852,0.80377 l 3.02457,-0.18003 9.47543,4.62762 c 5.21148,2.5452 10.74942,5.95982 12.30655,7.58805 l 2.83112,2.96043 2.79388,-0.397 2.79387,-0.397 0.0523,-15.625 c 0.0288,-8.59375 -0.27767,-37.70824 -0.681,-64.69886 l -0.73333,-49.07387 -2.0737,-2.07369 -2.07368,-2.07369 -4.81249,3.33505 c -2.64688,1.83429 -5.26318,3.33506 -5.81403,3.33506 -0.55083,0 -3.50192,1.6875 -6.55797,3.75 -3.05604,2.0625 -5.90583,3.75 -6.33285,3.75 -0.42703,0 -1.84321,0.96544 -3.14708,2.14543 -1.30386,1.17997 -4.26448,3.28935 -6.57917,4.6875 -2.31468,1.39813 -9.77626,7.04207 -16.5813,12.54207 -6.80504,5.5 -13.68061,10.84375 -15.27905,11.875 -1.59844,1.03125 -4.71986,3.42187 -6.93647,5.3125 -2.21663,1.89062 -4.42112,3.4375 -4.89887,3.4375 -0.47775,0 -2.4174,1.54687 -4.31035,3.4375 -1.89295,1.89062 -5.9278,5.09426 -8.96635,7.1192 -14.16696,9.44109 -15.74672,12.53269 -9.17295,17.95135 l 4.47669,3.69005 5.03779,0.67571 5.0378,0.67572 3.36642,3.22523 c 1.85154,1.77388 4.09068,3.22524 4.97587,3.22524 0.88518,0 3.03964,1.125 4.78767,2.5 1.74803,1.375 3.92634,2.5 4.84068,2.5 1.46766,0 4.25041,3.6289 4.25041,5.54283 0,2.15202 -4.62116,0.0264 -10.6913,-4.91783 -3.79829,-3.09375 -7.76268,-5.625 -8.80975,-5.625 -1.84169,0 -9.3795,-3.18891 -22.39189,-9.47301 -7.26959,-3.51071 -9.70326,-3.74716 -11.85706,-1.15199 -0.85587,1.03125 -2.23335,1.875 -3.06108,1.875 -0.82772,0 -6.80572,3.65623 -13.28445,8.12495 -6.47871,4.46873 -12.29768,8.12498 -12.93105,8.125 -0.63336,3e-5 -2.18369,0.9341 -3.44516,2.07572 -1.26147,1.14162 -2.65155,1.71772 -3.08905,1.28021 -0.95325,-0.95325 1.86688,-4.60588 3.55611,-4.60588 0.65408,0 4.83596,-3.09375 9.29308,-6.875 4.45712,-3.78125 8.83975,-6.875 9.73916,-6.875 0.89941,0 3.1174,-1.16582 4.92886,-2.59072 l 3.29364,-2.59073 0,-2.912 0,-2.91199 -3.80867,-1.32771 c -2.09478,-0.73024 -5.26439,-2.47276 -7.04358,-3.87228 -1.7792,-1.39952 -4.20621,-2.54457 -5.39339,-2.54457 -1.18717,0 -7.43944,-2.80989 -13.89392,-6.24419 -6.45449,-3.4343 -13.14169,-6.86982 -14.86044,-7.6345 -1.71875,-0.76467 -4.10174,-1.89229 -5.29554,-2.50581 -1.1938,-0.61353 -2.88325,-1.1155 -3.75435,-1.1155 -3.05116,0 -19.29682,-8.61067 -24.59136,-13.03415 -2.93991,-2.45621 -5.8114,-4.46585 -6.38111,-4.46585 -0.5697,0 -2.69273,-1.39419 -4.71781,-3.09819 l -3.68199,-3.09819 -7.35143,-1.9175 -7.35141,-1.91749 -1.37695,1.87585 -1.37695,1.87583 -0.79887,10.39313 c -0.43939,5.71622 -0.48649,30.56266 -0.10463,55.21432 l 0.69421,44.82119 2.41849,6.36303 c 1.33016,3.49966 2.41876,8.19114 2.41911,10.42552 l 6.3e-4,4.0625 1.41496,0 c 1.81495,0 9.63144,-4.66333 13.26761,-7.91547 l 2.80757,-2.51105 0.86561,0.86561 0.86562,0.86561 -10.54818,9.91145 -10.54819,9.91146 -2.65274,0.0611 -2.65274,0.0612 -0.93163,-5.3125 z m 36.68808,-22.22909 c 1.62305,-1.35212 3.87305,-2.4397 5,-2.41682 l 2.04903,0.0416 -2.95098,2.45841 c -1.62305,1.35213 -3.87305,2.43971 -5,2.41683 l -2.04902,-0.0416 2.95097,-2.45841 z m 7.17367,-5.27091 c 0.84503,-1.96725 19.36806,-17.48646 20.05325,-16.80128 1.73258,1.73259 -15.85847,18.36378 -19.42365,18.36378 l -1.30078,0 0.67118,-1.5625 z m 21.75036,-19.6875 c 0,-0.6875 0.58125,-1.25 1.29166,-1.25 0.71043,0 3.26043,-1.96875 5.66668,-4.375 4.50576,-4.50576 6.1245,-5.21578 7.35437,-3.22577 l 0.71026,1.14922 -2.0169,2.0169 c -3.94223,3.94225 -13.00607,7.90384 -13.00607,5.68465 z m 125.55141,-1.83525 c -1.33452,-1.00938 -3.41867,-1.85313 -4.63144,-1.875 -1.21277,-0.0219 -4.15834,-1.30538 -6.54573,-2.85225 l -4.34071,-2.8125 0.39932,-1.25 c 0.21963,-0.6875 1.2688,-1.41873 2.33151,-1.62494 l 1.93219,-0.37494 1.84455,1.84455 c 1.0145,1.01449 3.75465,2.65246 6.08922,3.63992 2.33457,0.98745 5.31623,2.99801 6.62592,4.46788 l 2.38124,2.67253 -1.82983,0 c -1.0064,0 -2.92171,-0.82586 -4.25624,-1.83525 z m 83.91745,-123.47725 -1.83877,-2.8125 3.00687,-8.75 c 1.65379,-4.8125 3.03078,-9.8562 3.05997,-11.20821 0.0293,-1.35201 0.86101,-4.72701 1.84848,-7.5 0.98748,-2.77299 3.5592,-10.94804 5.71494,-18.16679 4.07959,-13.66094 4.5652,-15.05851 7.94139,-22.85491 1.12655,-2.60145 2.04826,-5.85823 2.04826,-7.23729 0,-1.37908 1.05635,-4.59436 2.34745,-7.1451 1.2911,-2.55074 2.75751,-6.53626 3.2587,-8.85674 0.50119,-2.32047 3.75185,-10.19547 7.22369,-17.5 l 6.31244,-13.28096 0.4471,-12.5 c 0.53643,-14.99835 0.55117,-12.16854 -0.14639,-28.125 -0.31558,-7.21875 -1.04027,-16.78125 -1.61041,-21.25 l -1.03664,-8.125 -2.77296,5.2627 c -1.52514,2.89449 -2.77298,5.87847 -2.77298,6.63109 0,0.7526 -1.06269,3.72814 -2.36153,6.61228 -1.29885,2.88417 -3.87029,9.18143 -5.71434,13.99393 -1.84404,4.8125 -6.61037,15.78125 -10.59184,24.375 -7.33925,15.84135 -10.89798,25.40282 -16.94926,45.5389 l -3.35497,11.1639 0.74565,3.72824 0.74564,3.72824 -1.64589,2.60786 c -3.2558,5.15872 -6.24272,15.38892 -12.17175,41.6883 -0.66093,2.93173 -1.20171,6.43982 -1.20171,7.79572 l 0,2.46529 -4.6875,2.12815 c -2.57812,1.17048 -5.65578,2.5602 -6.83922,3.08826 l -2.15173,0.96011 -1.91077,-1.91077 -1.91078,-1.91078 -0.004,-3.34821 c -0.005,-4.8009 3.58549,-19.84394 6.37341,-26.70493 l 2.38034,-5.85673 0,-4.32885 0,-4.32884 3.75,-7.12886 c 2.0625,-3.92088 3.75,-7.83038 3.75,-8.68778 0,-1.86893 12.04561,-33.7378 14.43379,-38.18722 0.92252,-1.71875 4.0071,-8.46875 6.85462,-15 2.84754,-6.53125 6.80125,-14.43206 8.78604,-17.55736 l 3.60872,-5.68236 3.23212,-11.15338 c 1.77767,-6.13435 3.75922,-11.78849 4.40346,-12.56474 3.20035,-3.85618 15.4112,-43.52051 18.01212,-58.50855 0.46208,-2.66276 1.29019,-5.75651 1.84026,-6.875 0.55005,-1.11849 1.78137,-4.56486 2.73627,-7.65861 l 1.73619,-5.625 3.1157,0.42869 c 7.16805,0.98623 9.33119,6.11257 4.39161,10.40748 l -3.09911,2.69464 -2.09173,5.47711 -2.09173,5.47713 0.82681,19.63247 c 0.45474,10.79787 1.35987,22.16373 2.0114,25.25748 0.65152,3.09375 1.20908,10.78212 1.23902,17.08526 0.09,18.94891 4.61855,21.22115 10.79149,5.41474 1.20821,-3.09375 4.6304,-9.07144 7.60485,-13.28374 2.97445,-4.21231 5.4081,-7.99832 5.4081,-8.41338 0,-0.41505 2.74651,-4.84362 6.10336,-9.84127 3.35685,-4.99764 7.00123,-11.05536 8.09861,-13.46161 1.09739,-2.40625 4.4774,-8.3125 7.51115,-13.125 l 5.51592,-8.75 2.52811,-0.38537 2.52812,-0.38537 0.78748,2.48112 0.78748,2.48111 -1.90974,4.15426 c -1.05036,2.28484 -5.93923,10.623 -10.86415,18.52925 -10.39214,16.68305 -16.79296,27.60495 -22.34336,38.125 -2.17635,4.125 -5.57413,10.04586 -7.5506,13.15748 -1.97649,3.11161 -5.05125,9.53008 -6.83283,14.26328 -1.78156,4.73319 -4.95386,12.03108 -7.04955,16.21752 -4.25745,8.50487 -15.2117,34.58582 -18.15984,43.23672 -1.05432,3.09375 -3.24796,9.05791 -4.87475,13.2537 -1.6268,4.19579 -4.38697,13.47704 -6.13373,20.625 -1.74677,7.14796 -3.72019,14.96505 -4.38539,17.3713 -0.6652,2.40625 -2.43915,9.71875 -3.94209,16.25 -1.50295,6.53125 -3.26986,12.57813 -3.92647,13.4375 l -1.19384,1.5625 -2.94313,0 -2.94312,0 -1.83878,-2.8125 z m -299.40782,-9.92849 -3.82123,-6.63401 0.71882,-3.38923 0.71881,-3.38922 -5.5272,-10.98578 c -3.03995,-6.04217 -7.53188,-15.48577 -9.98205,-20.98577 -11.23645,-25.22295 -21.7912,-46.83227 -25.94809,-53.125 -2.49784,-3.78125 -7.09929,-11.9375 -10.22545,-18.125 -8.66739,-17.15505 -19.73736,-37.26605 -21.73841,-39.49253 -0.98495,-1.09588 -3.4115,-5.03338 -5.39236,-8.75 -1.98087,-3.71661 -6.16017,-11.55896 -9.28734,-17.42745 l -5.68578,-10.66998 -1.31093,-8.08002 c -1.69549,-10.45022 -1.77347,-9.86591 1.48267,-11.11126 l 2.8125,-1.07566 3.89754,2.36595 3.89755,2.36595 4.03341,0 c 10.9696,0 23.7616,5.80226 34.44778,15.625 l 5.43951,5 5.64146,12.5 c 3.1028,6.875 6.52291,15.875 7.60026,20 l 1.9588,7.5 0.64864,11.98961 0.64864,11.98963 -1.32981,3.4977 -1.32983,3.4977 2.14365,2.36871 c 1.17901,1.30279 3.37131,3.05224 4.87178,3.88768 1.50047,0.83543 5.03342,2.78665 7.85101,4.33603 2.8176,1.54939 8.71325,6.17567 13.10146,10.28062 l 7.97856,7.46356 3.79119,7.84437 c 2.08516,4.31442 5.63041,12.62564 7.87834,18.46939 l 4.08714,10.625 0.0667,12.5 0.0668,12.5 -2.8693,8.75 c -1.57813,4.8125 -4.10895,12.125 -5.62407,16.25 l -2.75476,7.5 -4.56761,0.38401 -4.5676,0.38402 -3.82123,-6.63402 z m 11.3507,-19.44651 1.34985,-3.4375 -0.62871,-15 -0.62872,-15 -2.81953,-8.125 c -3.08018,-8.87605 -4.43118,-11.36135 -11.1045,-20.42775 l -4.45513,-6.05274 -10.35085,-6.13476 c -5.69296,-3.37411 -11.23832,-6.13475 -12.32301,-6.13475 l -1.97216,0 0.80971,3.22615 c 0.44535,1.77439 2.16554,5.29001 3.82266,7.8125 1.65711,2.52249 5.60115,10.66464 8.76453,18.09365 5.5364,13.00194 9.94087,21.75071 14.28141,28.3677 2.92256,4.45531 6.34271,12.25641 6.34271,14.4672 0,7.399 6.78742,13.755 8.91174,8.3453 z m -48.81789,-101.05059 1.64998,-1.98808 -0.13039,-7.07442 c -0.47691,-25.87612 -6.26495,-42.49044 -19.55676,-56.13691 l -7.60945,-7.8125 -2.24663,0 c -1.23564,0 -5.0139,-1.44698 -8.39615,-3.2155 l -6.14952,-3.2155 -3.50428,0.403 -3.50427,0.403 -0.41649,2.19604 -0.41649,2.19602 3.6017,7.17898 c 1.98092,3.94842 7.83849,14.21021 13.01681,22.80396 5.17833,8.59375 13.46023,22.51562 18.40423,30.9375 l 8.9891,15.3125 2.30932,0 c 1.27013,0 3.05181,-0.89464 3.95929,-1.98809 z m 83.8201,105.31064 -1.39216,-1.67745 0.6604,-18.01005 c 0.36321,-9.90552 0.56481,-28.13505 0.44798,-40.51005 -0.11687,-12.375 -0.16145,-23.90625 -0.0991,-25.625 0.0623,-1.71875 0.48595,-13.30118 0.94149,-25.73871 l 0.82825,-22.61371 -1.47125,-2.74905 -1.47125,-2.74907 2.72804,-4.41405 2.72802,-4.41405 0.46111,-45.22317 c 0.2536,-24.87275 0.46412,-45.58489 0.46783,-46.02695 0.004,-0.44208 0.87999,-1.13885 1.94727,-1.5484 l 1.94048,-0.74464 3.05952,2.00466 3.05949,2.00467 0.0181,9.54373 0.0182,9.54374 1.87136,5.37261 c 1.02925,2.95494 3.75971,9.14244 6.06767,13.75 2.30798,4.60757 6.57808,15.40864 9.48912,24.00239 6.44593,19.02918 6.68822,19.49768 11.32251,21.89416 l 3.71295,1.92004 0,4.55698 0,4.55697 -2.07973,2.29806 -2.07972,2.29808 1.30509,2.80036 c 0.71778,1.54019 2.16495,5.05035 3.21591,7.80035 1.05096,2.75 3.33344,8.65625 5.07216,13.125 3.1235,8.02781 6.13173,20.97778 7.6948,33.125 0.44234,3.4375 1.95276,9.90625 3.35651,14.375 5.93126,18.88184 10.026,30.82214 11.57404,33.75 0.90875,1.71875 2.03593,4.92014 2.50483,7.11419 l 0.85255,3.98919 -1.37721,2.57331 -1.37719,2.57331 -3.01014,0 -3.01014,0 -1.94589,-2.77814 -1.94587,-2.77812 0,-4.03805 c 0,-2.22094 -0.51664,-5.33015 -1.14808,-6.90938 -1.06664,-2.66767 -5.78856,-17.55725 -10.56907,-33.32735 -1.11806,-3.68832 -2.03953,-8.18832 -2.04769,-10 -0.008,-1.81169 -0.84528,-6.38771 -1.8602,-10.16896 -1.01492,-3.78125 -1.852,-8.39515 -1.86016,-10.25311 -0.009,-1.85797 -2.20834,-9.17047 -4.88928,-16.25 -2.68094,-7.07954 -5.84517,-15.52823 -7.03163,-18.77486 l -2.1572,-5.90299 -2.28817,-0.72624 -2.28816,-0.72623 -5.17501,1.55047 -5.17501,1.55047 -1.13019,2.97261 c -0.6216,1.63495 -1.1313,7.57663 -1.13267,13.20375 -0.001,5.62712 -0.82332,18.10613 -1.82656,27.73113 -1.89342,18.16539 -3.8258,44.66043 -5.05457,69.3042 l -0.71323,14.3042 -2.3813,5.3833 -2.38128,5.3833 -1.79223,0 c -0.98574,0 -2.41871,-0.75485 -3.1844,-1.67745 z m 29.42624,-150.30757 0.76172,-1.98504 -1.35786,-3.95246 c -0.74683,-2.17387 -3.30154,-9.5589 -5.67714,-16.4112 l -4.31926,-12.45873 -1.49209,-0.49736 -1.49209,-0.49737 0.78865,7.95609 c 0.43375,4.37585 1.0894,12.87796 1.45698,18.89359 l 0.66832,10.9375 4.95052,0 4.95052,0 0.76173,-1.98502 z m 154.9974,142.29752 c -2.593,-4.3413 -4.95883,-29.41623 -4.80598,-50.9375 0.0635,-8.9375 -0.41351,-19.61384 -1.05997,-23.7252 l -1.17539,-7.4752 1.14244,-3.7748 c 1.30397,-4.30856 3.5615,-26.20011 5.1587,-50.0248 0.59917,-8.9375 1.58865,-21.875 2.19885,-28.75 l 1.10944,-12.5 2.7674,-6.25 c 1.52206,-3.4375 3.3384,-9.34375 4.0363,-13.125 l 1.26892,-6.875 6.14541,-11.875 6.14542,-11.875 5.03558,-5.3125 c 5.96438,-6.29236 7.65297,-6.53724 11.15594,-1.61776 l 2.63088,3.69473 4.84056,14.90147 c 2.66231,8.19581 5.72445,19.33006 6.80475,24.74277 l 1.96419,9.84129 0.24077,15 c 0.13243,8.25 -0.43966,25.40625 -1.2713,38.125 l -1.51207,23.125 -1.721,7.5 c -3.27834,14.28675 -6.4104,23.45131 -11.33793,33.17532 -1.70472,3.36412 -3.0995,6.91492 -3.0995,7.89068 0,0.97576 -2.25,5.14352 -5,9.26167 -2.75,4.11817 -5,8.22413 -5,9.12438 0,0.90025 -1.08254,2.79808 -2.40565,4.21739 -1.3231,1.41931 -5.8341,9.30416 -10.02442,17.52188 -4.19034,8.21774 -8.31092,15.38099 -9.15685,15.91837 -1.96318,1.24707 -4.3552,1.28374 -5.07549,0.0779 z m 14.16325,-38.7233 c 1.18594,-2.21969 3.37551,-5.03219 4.86572,-6.25 l 2.70948,-2.2142 0.74706,-5 0.74705,-5 3.51405,-3.75 c 3.5081,-3.74365 9.88047,-16.04919 9.90359,-19.12458 0.006,-0.89351 0.85432,-3.25303 1.88356,-5.24337 l 1.87135,-3.6188 2.0594,-14.13163 2.05939,-14.13162 -0.0724,-31.875 -0.0724,-31.875 -1.29015,-5.625 c -0.70959,-3.09375 -1.94263,-8.4375 -2.74008,-11.875 -0.79746,-3.4375 -1.95315,-6.78438 -2.56821,-7.4375 -0.61506,-0.65313 -1.1183,-2.73604 -1.1183,-4.62869 0,-4.32656 -2.43671,-9.80881 -4.35976,-9.80881 l -1.45848,0 -4.07176,11.5625 c -2.23946,6.35937 -5.37158,16.72423 -6.96024,23.033 -1.58867,6.30876 -3.23,12.02305 -3.64738,12.69841 -2.87739,4.6557 -8.47902,37.64176 -10.01182,58.95609 -0.3708,5.15625 -1.24717,16.65777 -1.9475,25.55894 l -1.27331,16.18395 0.70964,12.56605 c 0.3903,6.91133 1.27634,15.55218 1.96897,19.20189 l 1.25933,6.63583 2.56845,-0.38583 2.56845,-0.38583 2.15625,-4.0358 z m -59.22788,35.0171 c -1.57379,-1.57379 -5.77296,-11.84617 -5.77296,-14.12231 0,-1.20903 -0.84029,-3.80939 -1.8673,-5.7786 l -1.8673,-3.58039 -0.007,-5.09221 -0.007,-5.09223 -2.96389,-9.90777 c -1.63014,-5.44929 -3.38116,-12.38175 -3.89116,-15.40548 -0.51,-3.02372 -1.65386,-7.24247 -2.54191,-9.375 -0.88805,-2.13252 -2.83678,-10.90856 -4.3305,-19.50231 -3.76301,-21.64943 -6.85031,-31.0889 -9.35034,-28.58886 -0.43021,0.43021 -0.82546,11.67932 -0.87834,24.99803 l -0.0961,24.21583 2.65114,9.88745 c 1.45813,5.4381 2.65114,12.06514 2.65114,14.72674 l 0,4.83927 -2.03949,0.78263 -2.03949,0.78262 0.84342,11.17259 0.84342,11.17257 -1.18416,1.44307 c -0.65129,0.79368 -1.37868,2.84356 -1.61643,4.55528 l -0.43227,3.11224 -2.1875,0.41693 -2.1875,0.41692 0,-2.80574 c 0,-1.54315 -0.87526,-3.77287 -1.94503,-4.95496 l -1.94606,-2.14922 -0.24247,-33.5742 c -0.13377,-18.4658 0.0985,-58.04294 0.51587,-87.94919 l 0.75876,-54.375 -1.58769,-21.25 -1.5877,-21.25 0.90279,-5.67071 c 0.49652,-3.11889 1.32461,-6.35326 1.8402,-7.1875 l 0.93742,-1.51679 3.10104,0 c 1.70556,0 5.19184,1.06665 7.74727,2.37034 l 4.64627,2.37035 6.41457,6.78246 6.41458,6.78247 1.4886,7.40969 c 0.81872,4.07533 1.98475,9.65969 2.59115,12.40969 0.6064,2.75 1.45051,6.82962 1.87581,9.06582 l 0.77328,4.06583 -2.72919,9.68417 c -1.50105,5.3263 -3.61916,12.72425 -4.70694,16.4399 l -1.97775,6.75572 -7.21145,8.24428 -7.21145,8.24428 0.69971,3.125 c 0.38485,1.71875 1.81578,6.78125 3.17987,11.25 1.36407,4.46875 3.58988,12.0625 4.94625,16.875 1.35636,4.8125 3.58661,10.66187 4.95612,12.99861 1.36951,2.33674 3.07881,7.11799 3.79845,10.625 0.71963,3.50701 1.83024,8.62639 2.46804,11.37639 0.63778,2.75 1.63402,8.73404 2.21385,13.29786 0.57984,4.56381 1.37532,8.81738 1.76776,9.45236 0.39244,0.63498 1.58449,6.46345 2.64899,12.95214 2.22876,13.58541 4.77782,22.54754 7.5312,26.47854 l 1.92643,2.75036 0,4.76585 0,4.76585 -2.01876,3.08101 c -2.0959,3.19874 -3.18902,3.70658 -4.70827,2.18733 z M 378.20071,483.48301 c 4.86798,-5.79833 7.32129,-12.13166 9.03684,-23.32904 l 1.32441,-8.64436 -1.45394,-5.43608 c -0.79966,-2.98984 -1.45602,-6.97487 -1.45859,-8.85564 l -0.005,-3.41956 -2.3038,-3.75 c -1.26708,-2.0625 -4.06305,-5.62215 -6.21323,-7.91034 l -3.90943,-4.16033 -2.21958,0.45823 -2.21961,0.45823 0.37529,2.4521 c 0.2064,1.34866 0.30736,3.01461 0.22436,3.70211 -0.083,0.6875 -0.43808,5.64191 -0.78907,11.0098 l -0.63814,9.75981 1.97628,12.47776 c 1.08728,6.86277 1.97661,16.39273 1.97661,21.17769 l 0,8.69994 1.17943,0 c 0.64867,0 2.95141,-2.11065 5.11718,-4.69032 z M 228.62058,434.73583 c -0.38779,-1.20313 -1.86383,-5 -3.28009,-8.4375 -1.41627,-3.4375 -4.10677,-11.3125 -5.97889,-17.5 -7.7661,-25.66741 -15.37797,-49.32408 -18.70255,-58.125 -3.583,-9.48506 -11.25495,-33.75928 -11.25495,-35.61093 0,-0.5533 -3.3238,-7.81407 -7.38624,-16.13503 l -7.38623,-15.12904 -0.87807,-5 c -0.93082,-5.30038 -2.72705,-11.65448 -7.59843,-26.87926 -3.791,-11.84822 -3.78023,-12.0286 0.86233,-14.42937 l 3.86335,-1.99781 4.57415,0.74059 c 2.51578,0.40732 7.45209,0.96555 10.9696,1.2405 3.5175,0.27495 8.86125,1.23025 11.875,2.1229 l 5.47954,1.623 6.13379,6.26206 6.13379,6.26206 2.24621,5.07794 2.2462,5.07793 1.55991,14.02863 1.55991,14.02864 -2.82635,13.42109 c -1.55448,7.38161 -3.12601,14.61408 -3.49226,16.07216 l -0.66592,2.65105 7.44308,5.72733 c 4.09369,3.15002 11.036,9.63399 15.42735,14.40881 l 7.98429,8.68151 5.33894,11.91609 5.33895,11.91609 1.34446,7.27286 1.34446,7.27285 -0.44974,8.90596 -0.44972,8.90595 -7.37091,10.85174 c -7.88299,11.60564 -10.90647,14.4637 -15.3008,14.4637 -1.5252,0 -3.12074,0.5625 -3.54564,1.25 -0.4249,0.6875 -1.60075,1.25 -2.613,1.25 l -1.84046,0 -0.70506,-2.1875 z m 14.02263,-18.125 c 1.12933,-2.23438 3.23631,-5.35551 4.68219,-6.93588 l 2.62886,-2.87336 0.48093,-8.51126 0.48092,-8.51126 -4.42527,-10.21168 -4.42528,-10.21167 -6.4275,-8.07754 c -3.53511,-4.44265 -9.89956,-11.1749 -14.14322,-14.96058 l -7.71574,-6.88303 -2.11372,-0.006 c -1.16255,-0.002 -2.38359,0.43102 -2.71342,0.9647 -1.22837,1.98754 7.65464,34.27486 12.20284,44.35405 1.62578,3.60285 3.33223,7.95688 3.7921,9.67563 0.45988,1.71875 1.90243,5.65626 3.20566,8.75 1.30324,3.09375 3.4926,8.29688 4.86524,11.5625 l 2.49573,5.9375 2.53818,0 2.53819,0 2.05331,-4.0625 z m -36.49735,-98.75 c 2.73653,-4.27726 5.78852,-18.08516 6.8025,-30.77609 l 0.90952,-11.38324 -2.1745,-4.07658 c -1.19597,-2.24213 -2.19807,-5.09464 -2.22688,-6.33892 l -0.0524,-2.26232 -6.43132,-6.80018 -6.43132,-6.80017 -3.36035,0 c -1.84819,0 -3.74585,-0.3855 -4.21701,-0.85668 -1.52259,-1.52258 -8.87105,-3.60457 -11.12165,-3.15101 l -2.18665,0.44068 -0.78449,3.12567 -0.7845,3.12569 1.46649,3.21861 c 0.80658,1.77023 2.24074,6.36938 3.18704,10.22031 2.31042,9.40232 8.68205,26.8051 11.66523,31.86122 1.32856,2.25173 3.12911,6.29827 4.00121,8.9923 0.8721,2.69401 2.64595,7.00758 3.94188,9.58571 l 2.35625,4.6875 1.82078,0 c 1.00142,0 2.63051,-1.26563 3.62017,-2.8125 z m 290.13324,95.29531 c -12.61228,-7.3128 -14.35592,-7.61551 -17.90167,-3.10781 l -2.45813,3.125 -2.58863,0 -2.58861,0 -1.1972,-2.23698 c -0.65845,-1.23033 -2.66217,-3.02101 -4.45271,-3.97927 l -3.25551,-1.7423 -0.68818,-2.74194 -0.68819,-2.74194 1.91565,-7.96628 c 1.0536,-4.38146 2.81532,-16.57815 3.9149,-27.10375 1.0996,-10.5256 2.25164,-19.80685 2.56009,-20.625 0.77459,-2.05454 5.35825,-34.04488 6.83997,-47.73754 0.66957,-6.1875 2.03072,-15.46875 3.02478,-20.625 0.99407,-5.15625 2.7196,-16.40625 3.83453,-25 1.11494,-8.59375 2.78462,-19.28125 3.71041,-23.75 0.9258,-4.46875 2.36351,-13.46875 3.19491,-20 l 1.51165,-11.875 1.82004,-1.46207 1.82003,-1.46207 3.96093,1.34783 c 2.17852,0.7413 6.42763,3.08673 9.44247,5.21207 7.93575,5.59436 13.8098,8.71582 19.70162,10.46942 5.7481,1.71081 6.86945,3.2833 5.31788,7.45732 l -1.04547,2.8125 -1.84151,0 c -1.01282,0 -2.18915,-0.5625 -2.61405,-1.25 -0.4249,-0.6875 -1.90362,-1.25 -3.28605,-1.25 -1.38244,0 -4.86486,-1.55769 -7.73872,-3.46153 -2.87388,-1.90384 -6.91273,-4.08465 -8.97523,-4.84624 -2.0625,-0.76159 -4.66185,-1.7675 -5.77633,-2.23536 l -2.02632,-0.85065 -2.03618,2.03618 -2.03617,2.03617 -0.0594,5.22322 c -0.0327,2.87276 -1.6579,14.50446 -3.61161,25.84821 l -3.5522,20.625 1.37274,1.69272 c 2.05679,2.53624 7.08227,4.1245 13.07741,4.13302 l 5.35194,0.007 1.86391,2.8447 1.86392,2.8447 -0.73993,1.92826 -0.73995,1.92826 -4.42104,0.82939 -4.42105,0.8294 -6.14248,-1.57428 -6.14248,-1.57427 -1.85124,1.85124 -1.85123,1.85123 -2.45374,19.32902 c -1.34956,10.63096 -2.98649,22.42276 -3.63764,26.20401 -1.97555,11.472 -3.80077,28.36359 -5.25997,48.67881 l -1.38655,19.3038 2.11059,1.5433 c 1.16081,0.84881 4.44932,1.93174 7.30779,2.4065 5.61692,0.93291 10.95802,3.31566 15.67829,6.99434 1.63958,1.27779 4.05814,2.32325 5.37457,2.32325 1.31642,0 4.05306,0.8582 6.08143,1.9071 l 3.68792,1.9071 0,2.49884 0,2.49883 -3.20637,1.21907 c -4.77164,1.81417 -6.79587,1.43681 -13.66863,-2.54813 z m -187.5204,0.95469 c -0.31181,-0.85938 -1.41403,-5.65295 -2.44935,-10.6524 -1.03531,-4.99945 -3.05581,-11.38999 -4.49,-14.20121 -1.43417,-2.81123 -3.40778,-8.94902 -4.38577,-13.63953 -0.978,-4.69052 -2.26658,-9.83122 -2.86351,-11.42379 -0.59693,-1.59256 -1.48623,-6.83307 -1.97624,-11.64557 -0.49001,-4.8125 -2.29691,-15.21875 -4.01534,-23.125 -1.71843,-7.90625 -4.2219,-20 -5.56327,-26.875 -1.34137,-6.875 -3.2534,-16.4375 -4.24894,-21.25 -0.99557,-4.8125 -2.90202,-14.9375 -4.23657,-22.5 -1.33455,-7.5625 -4.45916,-21.87258 -6.94357,-31.80015 -5.20236,-20.78838 -4.52477,-26.5241 2.24922,-19.03892 l 2.06874,2.28592 0.0149,3.02658 c 0.009,1.66461 0.90924,6.12032 2.0024,9.90157 4.89271,16.92392 8.08277,29.76126 8.54215,34.375 0.54409,5.4645 5.13215,27.75554 6.94661,33.75 8.5748,28.32875 11.4339,42.11124 16.33024,78.72082 l 1.16636,8.72083 3.87,9.40417 c 2.1285,5.17231 4.66444,10.23311 5.63542,11.24624 l 1.76541,1.84208 9.05078,-2.89997 c 4.97794,-1.59497 10.02753,-3.40828 11.22133,-4.02956 1.19376,-0.62129 3.4972,-1.12961 5.11873,-1.12961 l 2.94822,0 2.14893,2.37452 2.14891,2.37453 -0.80088,4.26905 c -0.44049,2.34798 -1.23662,4.97409 -1.7692,5.8358 l -0.96831,1.56678 -11.74849,0.24195 -11.74848,0.24195 -4.52254,2.79771 c -2.4874,1.53873 -5.73944,2.79771 -7.22674,2.79771 l -2.70419,0 -0.56693,-1.5625 z m 97.89869,-11.29584 -4.49613,-4.11829 -1.3685,-4.94918 c -0.75269,-2.72205 -3.3,-15.35544 -5.66071,-28.07419 l -4.2922,-23.125 -1.42304,-16.875 c -0.78267,-9.28125 -1.98711,-20.53125 -2.67654,-25 l -1.25351,-8.125 0.21343,-45 c 0.11737,-24.75 0.57691,-48.09375 1.02117,-51.875 l 0.80774,-6.875 2.81049,-0.39918 2.81049,-0.39917 1.34826,3.52417 1.34827,3.52418 -1.34887,4.52873 -1.34886,4.52874 -0.07,39.74998 -0.07,39.74999 1.31619,10.72127 c 0.72391,5.89671 1.94094,15.78379 2.70453,21.97129 0.76357,6.1875 1.82731,16.59375 2.36385,23.125 2.48137,30.20589 13.862,60.18738 19.42791,51.18154 1.4751,-2.38677 4.30329,-20.24034 6.22656,-39.30654 1.04025,-10.3125 2.45265,-21.84375 3.13867,-25.625 0.68601,-3.78125 1.89572,-12.21875 2.68826,-18.75 l 1.44097,-11.875 0.38738,-46.25 c 0.21305,-25.4375 0.54227,-50.17902 0.73161,-54.98116 l 0.34424,-8.73116 2.32027,-0.44857 2.32028,-0.44856 1.35827,1.35827 1.35828,1.35828 0.27379,57.82145 0.27378,57.82145 -1.31432,12.5 c -0.72288,6.875 -1.7983,13.03438 -2.38984,13.6875 -0.59152,0.65313 -1.0636,3.46563 -1.04905,6.25 0.0345,6.60908 -3.50408,29.75488 -5.64716,36.9375 -0.92308,3.09375 -1.93876,9.00065 -2.25708,13.12645 l -0.57875,7.50145 -1.97675,4.73104 -1.97675,4.73104 -4.10748,1.68027 c -2.25912,0.92415 -5.26074,2.03115 -6.67028,2.45999 l -2.5628,0.77972 -4.49612,-4.1183 z"
       style="fill:#0d0d10" />
  </g>
</svg>
